<?xml version='1.0' encoding='utf-8'?>
<svg xmlns="http://www.w3.org/2000/svg" viewBox="0 0 438.08 232.49"><defs><style>.cls-1{fill:#0072bb;}.cls-2{fill:#00adef;}</style></defs><g id="Layer_2" data-name="Layer 2"><path d="M862.5,470.25s-6.26-16.48-50.07-26.25c0,0-3.75-6.72-62,42.13l-51.32,52.51v27.48l8.14,6.71s8.14,20.76,16.27,47.63c0,0,13.77,65.94,85.12,54.34,0,0,36.29,3.05,65.08-27.48,0,0,7.51-5.49,33.17-63.5,0,0,12.52-15.26,21.91,1.22a147.36,147.36,0,0,1,19.4,39.08s16.89,37.25,46.93,44c0,0,82,31.14,112-31.14,0,0,18.77-56.78,19.4-62.28l10.64-9.16V539.25s-80.11-84.89-104.52-95.57c0,0-40.05-.9-58.82,27.18,0,0,13.14,6.11,20.65-1.83,0,0,25.66-22,40.68-8.55L1106,530.09s-68.22-20.76-137.06,3.66c0,0-53.2,9.16-71.35,5.5,0,0-64.46-18.93-103.88-15.88,0,0-42.56-.61-62.59,7.33l44.44-47s24.4-25.65,35-27.48c0,0,16.9,0,24.41,9.16C835,465.37,856.87,480,862.5,470.25Z" transform="translate(-699.15 -443.68)"/></g><g id="Layer_3" data-name="Layer 3"><path class="cls-1" d="M739.21,548.41s-25.66,10.38,0,76.93c0,0,6.69,40.39,60.7,39.08,0,0,50.7,0,67-29.92,0,0,25.63-33.58,22.53-65.94,0,0-1.25-23.2-58.83-31.14H765.49S743.16,545.38,739.21,548.41Z" transform="translate(-699.15 -443.68)"/><polygon class="cls-2" points="31.08 116.24 130.16 216.46 142.88 211.98 35.89 107.97 31.08 116.24"/><path class="cls-2" d="M750.32,543.17,855.23,647.93l19.73-26-88.82-84.51S758,539.84,750.32,543.17Z" transform="translate(-699.15 -443.68)"/><path class="cls-1" d="M946.36,571.61s3.22,56.7,40.68,80c0,0,50.07,31.74,97-3.67,0,0,19.9-17.65,23.79-76.32,0,0,5.63-31.14-47.57-34.19,0,0-42.56-3.67-70.72,0C989.54,537.42,949.49,548.41,946.36,571.61Z" transform="translate(-699.15 -443.68)"/><polygon class="cls-2" points="252.71 115.7 362.39 216.46 370.61 213.02 260.81 107.97 252.71 115.7"/><polygon class="cls-2" points="273.68 100.23 384.89 204.25 400.24 175.47 311.66 92.11 273.68 100.23"/></g></svg>